<?xml version="1.0" standalone="no"?>
<!DOCTYPE svg PUBLIC "-//W3C//DTD SVG 20010904//EN"
 "http://www.w3.org/TR/2001/REC-SVG-20010904/DTD/svg10.dtd">
<svg version="1.0" xmlns="http://www.w3.org/2000/svg"
 width="260.000000pt" height="260.000000pt" viewBox="0 0 260.000000 260.000000"
 preserveAspectRatio="xMidYMid meet">
<metadata>
Created by potrace 1.14, written by Peter Selinger 2001-2017
</metadata>
<g transform="translate(0.000000,260.000000) scale(0.100000,-0.100000)"
fill="#000000" stroke="none">
<path d="M1080 2524 c-14 -9 -49 -48 -78 -88 -29 -39 -56 -75 -60 -81 -24 -31
-65 -105 -127 -229 -61 -122 -73 -140 -95 -141 -233 -13 -565 -105 -600 -168
-14 -25 -13 -32 13 -105 44 -122 52 -100 -66 -183 -68 -49 -78 -74 -50 -133
37 -75 144 -208 270 -334 135 -135 126 -118 106 -202 -2 -8 -6 -31 -9 -50 -9
-59 -12 -75 -14 -75 -6 0 -11 -78 -15 -227 -4 -160 -3 -167 18 -200 l23 -33
89 -2 c50 0 97 -2 105 -2 11 -1 23 -28 40 -87 26 -92 51 -124 98 -124 73 0
492 170 516 209 4 6 12 9 17 6 5 -4 9 -2 9 3 0 6 6 12 14 15 13 5 24 1 101
-42 168 -95 364 -173 466 -186 48 -6 56 -4 75 17 12 13 32 59 45 103 12 44 26
82 30 85 4 3 45 4 91 3 98 -2 133 9 146 47 10 27 8 302 -2 370 -11 70 -13 86
-21 130 -5 25 -9 50 -10 55 -1 6 -5 22 -9 37 -7 24 2 36 111 145 131 131 145
147 218 249 61 84 79 125 71 157 -3 14 -37 46 -86 81 -45 32 -79 64 -76 70 2
6 16 48 31 94 34 103 28 121 -47 157 -57 26 -199 69 -263 79 -22 4 -56 11 -75
16 -19 5 -66 12 -105 16 -38 3 -80 7 -93 8 -30 4 -31 5 -88 126 -27 58 -51
107 -54 110 -3 3 -12 19 -20 35 -8 17 -23 39 -32 49 -10 11 -18 24 -18 28 0
13 -83 128 -92 128 -4 0 -8 5 -8 10 0 16 -50 60 -76 66 -27 7 -51 -5 -126 -63
-31 -23 -62 -43 -68 -43 -11 0 -67 37 -85 56 -21 23 -74 54 -92 54 -10 0 -29
-8 -43 -16z m70 -146 c0 -5 4 -7 8 -4 5 3 15 -4 22 -15 8 -10 20 -19 28 -19 7
0 15 -6 18 -14 3 -8 15 -17 27 -21 52 -18 76 -11 142 37 36 26 71 48 78 48 6
0 23 -17 37 -38 14 -20 33 -46 43 -56 9 -11 17 -25 17 -32 0 -7 3 -14 8 -16
16 -7 162 -293 162 -320 1 -7 9 -23 19 -35 14 -17 32 -22 97 -27 43 -3 88 -8
99 -10 11 -2 41 -6 66 -10 25 -4 59 -9 75 -13 16 -3 35 -6 42 -6 6 0 12 -3 12
-6 0 -3 10 -7 23 -7 40 -3 177 -48 177 -60 0 -6 -11 -43 -25 -82 -36 -102 -29
-121 62 -189 l74 -55 -17 -26 c-63 -98 -265 -316 -332 -360 -14 -9 -33 -29
-42 -45 -16 -26 -16 -33 -3 -75 7 -26 16 -63 19 -82 3 -19 7 -42 10 -51 2 -9
7 -34 10 -55 3 -22 7 -55 10 -74 8 -59 13 -260 6 -261 -4 -1 -46 -2 -94 -3
-110 -3 -125 -14 -158 -126 -18 -60 -27 -79 -39 -76 -43 8 -131 38 -136 47 -4
5 -13 9 -22 9 -19 0 -226 99 -234 112 -3 5 -8 9 -10 7 -2 -1 -24 10 -49 26
-75 47 -85 47 -172 -7 -43 -26 -82 -48 -88 -48 -5 0 -10 -4 -10 -10 0 -5 -5
-10 -10 -10 -6 0 -45 -16 -87 -36 -41 -20 -81 -37 -87 -38 -6 -1 -16 -5 -23
-9 -13 -8 -95 -35 -128 -42 -18 -4 -24 6 -47 83 -33 109 -44 116 -166 117
l-87 0 0 115 c0 63 2 119 4 125 3 5 6 21 7 35 4 34 12 90 18 116 2 12 7 38 10
59 4 20 9 41 12 46 3 6 8 31 11 57 5 48 5 48 -48 92 -124 104 -288 285 -342
377 -5 7 17 29 57 57 35 25 69 53 76 61 15 18 22 95 8 95 -5 0 -8 6 -7 13 1 6
-3 25 -9 40 -28 67 -27 75 14 92 20 8 50 17 65 20 15 3 39 9 52 14 13 5 41 12
61 15 21 4 41 8 45 10 3 2 31 7 61 11 30 3 68 8 84 11 16 3 56 7 89 9 33 3 68
7 77 10 15 5 40 43 46 71 5 24 107 230 118 236 6 4 8 8 4 8 -6 0 48 90 70 116
5 5 21 29 36 51 18 26 33 40 42 36 8 -3 14 -9 14 -15z"/>
<path d="M1293 1651 c-60 -16 -84 -83 -43 -118 18 -15 20 -30 20 -122 l0 -104
-72 73 c-57 57 -72 79 -72 101 2 60 -76 93 -119 51 -42 -42 -14 -122 43 -122
20 0 46 -18 99 -69 39 -38 68 -71 64 -74 -5 -2 -49 -3 -99 -3 -70 1 -95 5
-108 18 -27 28 -54 31 -89 11 -38 -23 -47 -69 -19 -103 24 -29 84 -32 109 -4
15 16 32 19 116 19 53 0 97 -1 97 -3 0 -13 -144 -142 -160 -143 -11 -1 -24 -3
-30 -4 -5 -1 -14 -3 -19 -4 -5 0 -14 -14 -20 -29 -13 -32 -4 -69 23 -91 41
-34 114 4 112 59 0 22 14 43 72 100 l72 72 0 -102 c0 -87 -3 -104 -20 -122
-11 -12 -20 -34 -20 -50 0 -25 29 -67 48 -69 4 0 15 -2 24 -4 9 -2 29 8 43 20
31 29 33 73 5 103 -17 18 -20 35 -20 117 0 52 3 95 8 95 16 0 133 -130 136
-152 7 -47 19 -67 47 -77 23 -8 34 -6 61 13 34 23 37 30 26 82 -7 31 -27 44
-71 44 -13 0 -157 131 -157 143 0 1 43 2 95 2 75 -1 99 -4 115 -18 49 -42 123
-20 128 39 5 62 -54 99 -108 67 -17 -9 -30 -20 -30 -23 0 -5 -187 -6 -198 -1
-1 0 30 32 69 70 51 51 80 71 102 73 18 2 37 13 50 29 17 24 18 31 7 63 -6 20
-18 36 -25 36 -7 0 -15 4 -17 9 -3 9 -72 -10 -85 -22 -3 -3 -6 -22 -8 -43 -3
-30 -16 -49 -74 -107 l-71 -70 0 105 c0 82 3 107 14 111 8 3 17 20 21 38 12
53 -27 101 -72 90z"/>
</g>
</svg>
